<svg width="24" height="24" viewBox="0 0 24 24" fill="none" xmlns="http://www.w3.org/2000/svg">
<path d="M12.0001 23.0833C10.4565 23.0833 9.01049 22.792 7.66209 22.2094C6.3137 21.6268 5.13881 20.8367 4.13742 19.8391C3.13603 18.8414 2.34891 17.6654 1.77606 16.311C1.20318 14.9567 0.916748 13.504 0.916748 11.9529C0.916748 10.4093 1.20318 8.96629 1.77606 7.62388C2.34891 6.28148 3.13603 5.11145 4.13742 4.11379C5.13881 3.11616 6.3137 2.3339 7.66209 1.76701C9.01049 1.20013 10.4565 0.916687 12.0001 0.916687C13.5436 0.916687 14.9896 1.20013 16.338 1.76701C17.6864 2.3339 18.8613 3.11616 19.8627 4.11379C20.8641 5.11145 21.6512 6.28148 22.2241 7.62388C22.7969 8.96629 23.0834 10.4093 23.0834 11.9529C23.0834 13.504 22.7969 14.9567 22.2241 16.311C21.6512 17.6654 20.8641 18.8414 19.8627 19.8391C18.8613 20.8367 17.6864 21.6268 16.338 22.2094C14.9896 22.792 13.5436 23.0833 12.0001 23.0833ZM12.0001 21.8179C12.7255 21.0357 13.3223 20.1868 13.7904 19.2714C14.2586 18.3561 14.6423 17.2836 14.9414 16.0541H9.07665C9.37131 17.2657 9.75272 18.3362 10.2209 19.2658C10.6891 20.1954 11.2821 21.0461 12.0001 21.8179ZM10.1491 21.5801C9.60319 20.8711 9.1197 20.0459 8.69865 19.1043C8.2776 18.1627 7.94666 17.146 7.70584 16.0541H3.06161C3.80796 17.5618 4.74579 18.7524 5.87508 19.626C7.00436 20.4995 8.42904 21.1508 10.1491 21.5801ZM13.8801 21.5622C15.4073 21.2197 16.7879 20.5713 18.0218 19.617C19.2558 18.6627 20.228 17.4751 20.9385 16.0541H16.3122C16.022 17.149 15.6713 18.1635 15.26 19.0976C14.8486 20.0317 14.3887 20.8532 13.8801 21.5622ZM2.63534 14.7305H7.46356C7.39025 14.198 7.34313 13.7077 7.32219 13.2598C7.30124 12.8118 7.29077 12.3762 7.29077 11.9529C7.29077 11.4817 7.30424 11.036 7.33117 10.6157C7.3581 10.1954 7.40821 9.74069 7.48149 9.25159H2.63534C2.49174 9.7033 2.39002 10.1401 2.33019 10.5618C2.27036 10.9837 2.24045 11.4473 2.24045 11.9529C2.24045 12.4659 2.27036 12.9423 2.33019 13.3821C2.39002 13.8218 2.49174 14.2713 2.63534 14.7305ZM8.82313 14.7305H15.1949C15.2802 14.1426 15.3363 13.6423 15.3632 13.2295C15.3901 12.8167 15.4036 12.3911 15.4036 11.9529C15.4036 11.5341 15.3901 11.1261 15.3632 10.729C15.3363 10.3319 15.2802 9.83941 15.1949 9.25159H8.82313C8.73787 9.83941 8.68177 10.3319 8.65484 10.729C8.62793 11.1261 8.61447 11.5341 8.61447 11.9529C8.61447 12.3911 8.62793 12.8167 8.65484 13.2295C8.68177 13.6423 8.73787 14.1426 8.82313 14.7305ZM16.5186 14.7305H21.3648C21.5084 14.2713 21.6101 13.8218 21.6699 13.3821C21.7297 12.9423 21.7597 12.4659 21.7597 11.9529C21.7597 11.4473 21.7297 10.9837 21.6699 10.5618C21.6101 10.1401 21.5084 9.7033 21.3648 9.25159H16.5478C16.6136 9.89475 16.66 10.4186 16.6869 10.8232C16.7138 11.2278 16.7273 11.6044 16.7273 11.9529C16.7273 12.3881 16.7108 12.8159 16.6779 13.2362C16.645 13.6565 16.5919 14.1546 16.5186 14.7305ZM16.2943 7.92789H20.9385C20.252 6.43666 19.3011 5.2195 18.0858 4.27643C16.8705 3.33337 15.4589 2.71078 13.851 2.40865C14.3969 3.14305 14.8737 3.96757 15.2813 4.88222C15.6889 5.79686 16.0265 6.81209 16.2943 7.92789ZM9.07665 7.92789H14.9706C14.7118 6.83004 14.3278 5.79425 13.8185 4.82053C13.3092 3.84681 12.703 2.97929 12.0001 2.21796C11.3404 2.82523 10.7837 3.57534 10.3297 4.46828C9.87574 5.36123 9.45805 6.51443 9.07665 7.92789ZM3.06161 7.92789H7.72378C7.9676 6.84798 8.28844 5.85557 8.68631 4.95064C9.08418 4.04572 9.56207 3.20437 10.12 2.42659C8.51205 2.7362 7.11129 3.35469 5.91769 4.28205C4.7241 5.2094 3.77207 6.42468 3.06161 7.92789Z" fill="#919191"/>
</svg>
