<svg width="24" height="24" viewBox="0 0 24 24" fill="none" xmlns="http://www.w3.org/2000/svg">
<path d="M4.47504 18.5625C5.70004 17.707 6.91532 17.0507 8.12087 16.5938C9.32643 16.1368 10.6195 15.9083 12 15.9083C13.3806 15.9083 14.6785 16.1368 15.8938 16.5938C17.1091 17.0507 18.3292 17.707 19.5542 18.5625C20.4098 17.5125 21.0174 16.4528 21.3771 15.3833C21.7368 14.3139 21.9167 13.1861 21.9167 12C21.9167 9.18057 20.9688 6.82293 19.073 4.92709C17.1771 3.03126 14.8195 2.08334 12 2.08334C9.1806 2.08334 6.82296 3.03126 4.92712 4.92709C3.03129 6.82293 2.08337 9.18057 2.08337 12C2.08337 13.1861 2.2681 14.3139 2.63754 15.3833C3.00699 16.4528 3.61949 17.5125 4.47504 18.5625ZM11.9946 12.875C10.8705 12.875 9.92435 12.4892 9.15629 11.7175C8.38824 10.9458 8.00421 9.99791 8.00421 8.87375C8.00421 7.74959 8.39005 6.80348 9.16172 6.03543C9.93339 5.26737 10.8813 4.88334 12.0055 4.88334C13.1296 4.88334 14.0757 5.26918 14.8438 6.04085C15.6118 6.81252 15.9959 7.76044 15.9959 8.8846C15.9959 10.0088 15.61 10.9549 14.8384 11.7229C14.0667 12.491 13.1188 12.875 11.9946 12.875ZM12.0137 23.6667C10.4101 23.6667 8.89865 23.3604 7.47921 22.7479C6.05976 22.1354 4.82018 21.2993 3.76046 20.2396C2.70074 19.1799 1.86462 17.9426 1.25212 16.5277C0.639624 15.1128 0.333374 13.601 0.333374 11.9923C0.333374 10.3835 0.639624 8.87432 1.25212 7.46459C1.86462 6.05487 2.70074 4.82015 3.76046 3.76043C4.82018 2.70071 6.05749 1.86459 7.47238 1.25209C8.88728 0.639594 10.3991 0.333344 12.0078 0.333344C13.6165 0.333344 15.1257 0.639594 16.5355 1.25209C17.9452 1.86459 19.1799 2.70071 20.2396 3.76043C21.2993 4.82015 22.1355 6.05518 22.748 7.46553C23.3605 8.87587 23.6667 10.3828 23.6667 11.9864C23.6667 13.5899 23.3605 15.1014 22.748 16.5208C22.1355 17.9403 21.2993 19.1799 20.2396 20.2396C19.1799 21.2993 17.9449 22.1354 16.5345 22.7479C15.1242 23.3604 13.6172 23.6667 12.0137 23.6667ZM12 21.9167C13.0695 21.9167 14.1146 21.7611 15.1355 21.45C16.1563 21.1389 17.1625 20.5945 18.1542 19.8167C17.1625 19.1167 16.1514 18.582 15.1209 18.2125C14.0903 17.8431 13.05 17.6583 12 17.6583C10.95 17.6583 9.90976 17.8431 8.87921 18.2125C7.84865 18.582 6.83754 19.1167 5.84587 19.8167C6.83754 20.5945 7.84379 21.1389 8.86462 21.45C9.88546 21.7611 10.9306 21.9167 12 21.9167ZM12 11.125C12.6612 11.125 13.2007 10.916 13.6188 10.4979C14.0368 10.0799 14.2459 9.54029 14.2459 8.87918C14.2459 8.21807 14.0368 7.67848 13.6188 7.26043C13.2007 6.84237 12.6612 6.63334 12 6.63334C11.3389 6.63334 10.7993 6.84237 10.3813 7.26043C9.96324 7.67848 9.75421 8.21807 9.75421 8.87918C9.75421 9.54029 9.96324 10.0799 10.3813 10.4979C10.7993 10.916 11.3389 11.125 12 11.125Z" fill="#919191"/>
</svg>
